# xmcd
# Copyright (c) 1998 CDDB Inc.
#
# Track frame offsets:
#	150
#	35290
#	56630
#	124980
#	161160
#	217660
#	239650
#	290430
#	310851
#
# Disc length: 4727 seconds
#
# Revision: 0
# Processed by: cddbd v1.5.1PL2 Copyright (c) Steve Scherf et al.
# Submitted via: audiograbber 1.62
#
DISCID=80127509
DTITLE=aþýk ali - kimi koydunki
DYEAR=1900
DGENRE=
TTITLE0=hayat hikayem
TTITLE1=soyum benim
TTITLE2=aab
TTITLE3=bbbbbTrack:  4
TTITLE4=ggggTrack:  5
TTITLE5=hhhTrack:  6
TTITLE6=hhhTrack:  7
TTITLE7=tttTrack:  8
TTITLE8=rrrrrrr
EXTD=aþýk ali ateþ
EXTT0=
EXTT1=hayat hikayem
EXTT2=
EXTT3=
EXTT4=
EXTT5=
EXTT6=
EXTT7=
EXTT8=
PLAYORDER=
